<?xml version="1.0" encoding="UTF-8"?>
<svg version="1.1" xmlns="http://www.w3.org/2000/svg" width="666" height="375">
<path d="M0 0 C10.56 0 21.12 0 32 0 C32.99 1.98 33.98 3.96 35 6 C35.78639167 7.51316977 36.57778081 9.02375666 37.375 10.53125 C37.80296875 11.34207031 38.2309375 12.15289062 38.671875 12.98828125 C39.11015625 13.81714844 39.5484375 14.64601563 40 15.5 C42.71922055 20.64252593 45.40124575 25.79531262 48 31 C49.20133878 33.27493338 50.40896144 35.54548496 51.625 37.8125 C52.3373068 39.14709954 53.04954375 40.48173637 53.76171875 41.81640625 C55.23705379 44.57773198 56.7199236 47.33484352 58.20703125 50.08984375 C62.66576509 58.38755331 66.87449836 66.76131163 70.81811523 75.31738281 C72.98115885 79.98123958 75.33022351 84.48252717 77.85742188 88.95947266 C79.27833392 91.49707583 80.58818569 94.07960709 81.875 96.6875 C82.38160156 97.7084375 82.88820313 98.729375 83.41015625 99.78125 C83.93480469 100.8434375 84.45945312 101.905625 85 103 C88.07678766 109.22771479 91.14966242 115.44749427 94.4453125 121.5625 C94.85869873 122.33118408 95.27208496 123.09986816 95.69799805 123.8918457 C96.51156272 125.39863093 97.33056902 126.90249326 98.15551758 128.40307617 C101 133.67047572 101 133.67047572 101 137 C101.66 137 102.32 137 103 137 C105.04519535 141.34604012 106.20161508 144.13603617 106 149 C104.88625 148.73445312 103.7725 148.46890625 102.625 148.1953125 C93.4962721 146.06963738 84.60606965 144.44291472 75.2578125 143.6875 C70.61812415 142.70838112 69.00417413 140.48617771 66.4375 136.6875 C65 134 65 134 63.72265625 130.92578125 C61.76104369 126.30357684 59.37428414 121.92035842 57 117.5 C54.08459233 112.0721969 51.42473951 106.66838841 49 101 C47.48857767 98.01417557 45.89882703 95.07155688 44.3125 92.125 C40.95233552 85.82315307 37.74565496 79.48312291 34.75 73 C31.30349457 65.54920281 27.48009984 58.38357647 23.4375 51.23828125 C20.53201178 46.03019362 18.00933818 40.89307869 15.95703125 35.2890625 C14.86587055 32.67918426 13.49156907 30.4026753 12 28 C10.9225498 26.1754128 9.86017795 24.34184371 8.8125 22.5 C8.28269531 21.5821875 7.75289063 20.664375 7.20703125 19.71875 C5.94635952 16.87917872 5.75008368 15.06564022 6 12 C5.34 12 4.68 12 4 12 C3.34 11.01 2.68 10.02 2 9 C1.67 9.66 1.34 10.32 1 11 C2.0213196 13.49662343 2.0213196 13.49662343 3.5625 16.3125 C6.33541539 21.67943301 8.92373412 27.09752716 11.4375 32.58984375 C13.08820536 36.19250819 14.75964837 39.78492869 16.4375 43.375 C16.72568604 43.9925415 17.01387207 44.61008301 17.31079102 45.24633789 C18.85746792 48.55966543 20.4087472 51.87077307 21.96484375 55.1796875 C22.44449585 56.2018335 22.44449585 56.2018335 22.93383789 57.24462891 C23.54752868 58.55224399 24.16253773 59.85924144 24.77905273 61.16552734 C27.26028062 66.45756071 28.12360417 70.1859782 28.11352539 76.04174805 C28.11367142 76.75419678 28.11381744 77.46664551 28.1139679 78.20068359 C28.11327151 80.554393 28.10549192 82.90802317 28.09765625 85.26171875 C28.0957911 86.89410865 28.09436765 88.52649911 28.09336853 90.15888977 C28.08955101 94.45461575 28.07972724 98.75030789 28.06866455 103.04602051 C28.05843399 107.42976423 28.05386738 111.81351341 28.04882812 116.19726562 C28.0381043 124.7981926 28.02103705 133.39909209 28 142 C23.67139239 143.49716938 19.67523454 144.43248745 15.125 145 C11.17451902 145.52395853 7.34439593 146.07113085 3.5 147.125 C0 148 0 148 -6 148 C-6 99.82 -6 51.64 -6 2 C-3.525 2.495 -3.525 2.495 -1 3 C-0.67 2.01 -0.34 1.02 0 0 Z M1 6 C2 8 2 8 2 8 Z " fill="#7F1617" transform="translate(281,67)"/>
<path d="M0 0 C4 1 4 1 6 3 C6.43917715 4.89184005 6.87820762 6.78371431 7.31640625 8.67578125 C8.32190792 12.09448693 9.94280787 15.09826597 11.5859375 18.25 C13.1002157 21.19489461 14.49531407 24.17727616 15.875 27.1875 C18.04632802 31.92443812 20.2315252 36.65414024 22.4375 41.375 C22.72560547 41.99238037 23.01371094 42.60976074 23.31054688 43.24584961 C24.85732408 46.55933103 26.4086698 49.87060848 27.96484375 53.1796875 C28.44449585 54.2018335 28.44449585 54.2018335 28.93383789 55.24462891 C29.54752868 56.55224399 30.16253773 57.85924144 30.77905273 59.16552734 C33.26028062 64.45756071 34.12360417 68.1859782 34.11352539 74.04174805 C34.11367142 74.75419678 34.11381744 75.46664551 34.1139679 76.20068359 C34.11327151 78.554393 34.10549192 80.90802317 34.09765625 83.26171875 C34.0957911 84.89410865 34.09436765 86.52649911 34.09336853 88.15888977 C34.08955101 92.45461575 34.07972724 96.75030789 34.06866455 101.04602051 C34.05843399 105.42976423 34.05386738 109.81351341 34.04882812 114.19726562 C34.0381043 122.7981926 34.02103705 131.39909209 34 140 C29.67139239 141.49716938 25.67523454 142.43248745 21.125 143 C17.17451902 143.52395853 13.34439593 144.07113085 9.5 145.125 C6 146 6 146 0 146 C0 97.82 0 49.64 0 0 Z " fill="#6D1211" transform="translate(275,69)"/>
<path d="M0 0 C10.89 0 21.78 0 33 0 C33 44.55 33 89.1 33 135 C29 134 29 134 27.69140625 132.05395508 C27.31886719 131.21759521 26.94632812 130.38123535 26.5625 129.51953125 C26.14226562 128.60236328 25.72203125 127.68519531 25.2890625 126.74023438 C24.65097656 125.29100586 24.65097656 125.29100586 24 123.8125 C21.33370935 117.87798339 18.7156056 112.34323814 15 107 C14.33876187 105.18159515 13.68012446 103.36213864 13.04296875 101.53515625 C10.78736517 96.05243444 7.74955231 90.91299819 4.921875 85.70898438 C1.05796257 78.54601113 -1.15369421 73.07170004 -1.1328125 64.86328125 C-1.13479141 63.63304733 -1.13479141 63.63304733 -1.1368103 62.37796021 C-1.13873462 59.68943571 -1.13236978 57.00101401 -1.125 54.3125 C-1.12411377 53.40082062 -1.12322754 52.48914124 -1.12231445 51.54983521 C-1.10268758 34.34593649 -0.63972951 17.19273047 0 0 Z " fill="#DDD2B6" transform="translate(357,67)"/>
<path d="M0 0 C2.84346093 1.42173047 2.83302042 3.01515123 4 6 C5.58782996 9.17640086 7.26605743 12.30444965 8.9375 15.4375 C11.68039049 20.59988341 14.39130216 25.76815171 17 31 C18.20133878 33.27493338 19.40896144 35.54548496 20.625 37.8125 C21.3373068 39.14709954 22.04954375 40.48173637 22.76171875 41.81640625 C24.23705379 44.57773198 25.7199236 47.33484352 27.20703125 50.08984375 C31.66576509 58.38755331 35.87449836 66.76131163 39.81811523 75.31738281 C41.97797707 79.97437917 44.32129057 84.47120402 46.84423828 88.94189453 C58 108.80735108 58 108.80735108 58 117 C57.34 117 56.68 117 56 117 C55.21858643 115.43384193 55.21858643 115.43384193 54.42138672 113.83604431 C49.48139556 103.93567904 44.53922455 94.03640457 39.59498596 84.13815975 C37.05394842 79.05089404 34.51364688 73.96326376 31.97509766 68.87475586 C29.51947439 63.95254338 27.06182609 59.03134668 24.60284424 54.11081123 C23.67093587 52.24516471 22.73972457 50.3791698 21.80926514 48.51280022 C16.36150693 37.5866792 10.80162156 26.74273913 5 16 C3.80958814 13.7723713 2.62348083 11.54249424 1.4375 9.3125 C0.69306641 7.91451172 0.69306641 7.91451172 -0.06640625 6.48828125 C-1.08577696 3.77138108 -1.04048329 2.6603974 0 0 Z " fill="#AA9D91" transform="translate(312,67)"/>
<path d="M0 0 C10.89 0 21.78 0 33 0 C33 44.55 33 89.1 33 135 C29 134 29 134 27.04296875 130.9453125 C26.40985384 129.67908268 25.79183357 128.40521614 25.1875 127.125 C24.86330078 126.48691406 24.53910156 125.84882813 24.20507812 125.19140625 C21.86777369 120.39667894 21.86777369 120.39667894 23 117 C27 123.625 27 123.625 27 127 C29.85046032 124.57213442 29.98420563 124.17218945 30.35403442 120.14033508 C30.35969612 118.49107979 30.34861326 116.8417187 30.32470703 115.19262695 C30.32353882 114.29130035 30.32237061 113.38997375 30.32116699 112.46133423 C30.31395959 109.47008581 30.28570328 106.47940233 30.2578125 103.48828125 C30.24967118 101.40098072 30.24300979 99.31367394 30.23776245 97.22636414 C30.22060959 91.71353434 30.18637542 86.20094845 30.14770508 80.68823242 C30.08867465 71.91174115 30.05429829 63.13513412 30.02193832 54.35851097 C30.00814756 51.3122921 29.98651057 48.2662096 29.96365356 45.220047 C29.89913786 34.43028238 30.13309315 23.75866795 31 13 C29.00016466 13.79117904 29.00016466 13.79117904 27 15 C26.67 15.99 26.34 16.98 26 18 C25.34 18 24.68 18 24 18 C25 13 25 13 31 1 C20.77 1 10.54 1 0 1 C0 0.67 0 0.34 0 0 Z " fill="#66604E" transform="translate(357,67)"/>
<path d="M0 0 C1.98 0 3.96 0 6 0 C11.36369286 11.11504746 11.36369286 11.11504746 13.7175293 16.02026367 C14.31425694 17.26352516 14.91101805 18.50677058 15.5078125 19.75 C15.95357384 20.67870659 15.95357384 20.67870659 16.40834045 21.62617493 C18.20612386 25.36597766 20.02727207 29.09327051 21.8671875 32.8125 C22.28492432 33.66674561 22.70266113 34.52099121 23.13305664 35.40112305 C23.8989849 36.96706663 24.67373476 38.52873735 25.45874023 40.08520508 C27.47568245 44.24200962 28.4384944 47.26574694 28 52 C25.47650757 48.87567603 23.72743854 45.61939504 22 42 C21.34 42 20.68 42 20 42 C19.61908203 41.00419922 19.61908203 41.00419922 19.23046875 39.98828125 C18.88628906 39.10527344 18.54210937 38.22226563 18.1875 37.3125 C17.85105469 36.44238281 17.51460938 35.57226562 17.16796875 34.67578125 C15.9756883 31.94430263 14.57324011 29.52898348 13 27 C11.9225498 25.1754128 10.86017795 23.34184371 9.8125 21.5 C9.28269531 20.5821875 8.75289063 19.664375 8.20703125 18.71875 C6.94635952 15.87917872 6.75008368 14.06564022 7 11 C6.34 11 5.68 11 5 11 C4.34 10.01 3.68 9.02 3 8 C2.01 8.495 2.01 8.495 1 9 C0.67 6.03 0.34 3.06 0 0 Z M2 5 C3 7 3 7 3 7 Z " fill="#C06159" transform="translate(280,68)"/>
<path d="M0 0 C1.796875 0.12890625 1.796875 0.12890625 4 1 C5.703125 3.65234375 5.703125 3.65234375 7.25 6.9375 C7.77078125 8.01902344 8.2915625 9.10054687 8.828125 10.21484375 C10 13 10 13 10 15 C10.66 15 11.32 15 12 15 C12.33 17.64 12.66 20.28 13 23 C14.21623047 23.09087891 14.21623047 23.09087891 15.45703125 23.18359375 C22.64437747 23.7274558 29.82386699 24.32409168 37 25 C37.66 23.68 38.32 22.36 39 21 C39.495 22.485 39.495 22.485 40 24 C40.680625 24.680625 41.36125 25.36125 42.0625 26.0625 C43.0215625 27.0215625 43.0215625 27.0215625 44 28 C44 28.66 44 29.32 44 30 C44.99 30 45.98 30 47 30 C46.48308594 29.01257813 45.96617187 28.02515625 45.43359375 27.0078125 C44.76781134 25.71375655 44.10246946 24.41947388 43.4375 23.125 C43.09525391 22.47402344 42.75300781 21.82304687 42.40039062 21.15234375 C41.53917109 19.46470143 40.76313297 17.73420407 40 16 C40.33 15.34 40.66 14.68 41 14 C43 17 43 17 43 20 C43.66 20 44.32 20 45 20 C47.04519535 24.34604012 48.20161508 27.13603617 48 32 C46.88625 31.73445313 45.7725 31.46890625 44.625 31.1953125 C35.4962721 29.06963738 26.60606965 27.44291472 17.2578125 26.6875 C12.61812415 25.70838112 11.00417413 23.48617771 8.4375 19.6875 C7 17 7 17 5.5625 13.625 C4.41859409 10.97113829 3.28200764 8.70262895 1.8125 6.25 C0 3 0 3 0 0 Z " fill="#4E1D15" transform="translate(339,184)"/>
<path d="M0 0 C0.99 0.33 1.98 0.66 3 1 C5.02653192 5.49261048 5.24394623 9.49954082 5.22705078 14.38232422 C5.22734283 15.09521103 5.22763489 15.80809784 5.22793579 16.54258728 C5.22655138 18.88008132 5.2110326 21.21724969 5.1953125 23.5546875 C5.1915792 25.18278835 5.18873372 26.81089146 5.18673706 28.43899536 C5.17912556 32.71006548 5.15949856 36.98099811 5.1373291 41.25201416 C5.11681703 45.61590719 5.1077239 49.97982258 5.09765625 54.34375 C5.07625018 62.8958962 5.04214442 71.44793097 5 80 C0.62582669 81.50960591 -3.47187104 82.49559929 -8.0625 83.125 C-9.24972656 83.29257813 -10.43695313 83.46015625 -11.66015625 83.6328125 C-14.48221571 83.94307401 -17.16634349 84.0749928 -20 84 C-17.22011666 82.49056108 -14.72416914 81.60895955 -11.625 81 C-8.86631722 80.42923805 -6.36753073 79.78519911 -3.6875 78.875 C-1 78 -1 78 3 78 C2.91557483 68.56819463 2.82068301 59.13656929 2.71247292 49.7050066 C2.6625531 45.32542392 2.61622269 40.94586485 2.578125 36.56616211 C2.54121766 32.33854209 2.49484294 28.11112172 2.44193649 23.88367271 C2.42342149 22.2718017 2.40830285 20.65988793 2.39665604 19.04795265 C2.37974388 16.78802729 2.35069749 14.52855627 2.31884766 12.26879883 C2.29886215 10.34019768 2.29886215 10.34019768 2.2784729 8.37263489 C2.0124221 5.15044628 1.38763703 2.89640875 0 0 Z " fill="#3D1011" transform="translate(304,129)"/>
<path d="M0 0 C10.23 0 20.46 0 31 0 C30.34 1.98 29.68 3.96 29 6 C28.34 5.34 27.68 4.68 27 4 C27.33 3.34 27.66 2.68 28 2 C15.625 2.495 15.625 2.495 3 3 C2.67 24.78 2.34 46.56 2 69 C1.67 69 1.34 69 1 69 C0.67 65.37 0.34 61.74 0 58 C-0.33 58 -0.66 58 -1 58 C-1.15474695 38.62806238 -0.70083212 19.36048728 0 0 Z " fill="#E0DCCB" transform="translate(357,68)"/>
<path d="M0 0 C4 1 4 1 6 3 C6.43825016 4.88784685 6.87621369 6.77576084 7.3125 8.6640625 C8.60237594 13.04670918 10.87287032 16.97537396 13 21 C13.94336058 22.83032461 14.88105962 24.66358061 15.8125 26.5 C16.23144531 27.3146875 16.65039062 28.129375 17.08203125 28.96875 C18 31 18 31 18 33 C15 32 15 32 13.83203125 30.15234375 C13.49558594 29.42144531 13.15914063 28.69054687 12.8125 27.9375 C12.46832031 27.20402344 12.12414062 26.47054687 11.76953125 25.71484375 C11.51558594 25.14894531 11.26164062 24.58304688 11 24 C10.34 24.33 9.68 24.66 9 25 C9 23.35 9 21.7 9 20 C7.68 19.67 6.36 19.34 5 19 C4.01 21.97 3.02 24.94 2 28 C1.67 28 1.34 28 1 28 C0.67 18.76 0.34 9.52 0 0 Z " fill="#712928" transform="translate(275,69)"/>
<path d="M0 0 C0.33 0 0.66 0 1 0 C1 34.65 1 69.3 1 105 C1.99 105 2.98 105 4 105 C4 105.66 4 106.32 4 107 C2.35 107 0.7 107 -1 107 C-0.67 71.69 -0.34 36.38 0 0 Z " fill="#561415" transform="translate(276,108)"/>
<path d="M0 0 C2.16224804 1.85335546 3.16507788 3.33733306 4.4375 5.9375 C5.78250715 9.0024267 5.78250715 9.0024267 7.9375 10.8125 C12.8978678 16.07349615 16 24.8824272 16 32 C15.34 32 14.68 32 14 32 C11.99589258 28.09077223 10.0024168 24.17636137 8.01855469 20.25683594 C7.34240686 18.92463672 6.66339194 17.59388861 5.98144531 16.26464844 C5.00085458 14.35206767 4.0307448 12.43447933 3.0625 10.515625 C2.47597656 9.36352539 1.88945312 8.21142578 1.28515625 7.02441406 C0 4 0 4 0 0 Z " fill="#9B8E81" transform="translate(354,152)"/>
<path d="M0 0 C2.84346093 1.42173047 2.83302042 3.01515123 4 6 C5.58782996 9.17640086 7.26605743 12.30444965 8.9375 15.4375 C17.24470255 31.07245328 17.24470255 31.07245328 18 35 C17.01 35 16.02 35 15 35 C14.5153125 34.01902344 14.030625 33.03804687 13.53125 32.02734375 C12.85446928 30.66391224 12.17736066 29.30064348 11.5 27.9375 C11.14558838 27.22174805 10.79117676 26.50599609 10.42602539 25.76855469 C8.57184122 22.04957935 6.67449203 18.36901423 4.65234375 14.73828125 C4.28109375 14.06740479 3.90984375 13.39652832 3.52734375 12.70532227 C2.81241791 11.42265177 2.08744909 10.14551685 1.3515625 8.87475586 C-1.06223761 4.52859337 -1.06223761 4.52859337 -0.71484375 1.578125 C-0.47894531 1.05734375 -0.24304688 0.5365625 0 0 Z " fill="#AB8E83" transform="translate(312,67)"/>
<path d="M0 0 C0.99 0.33 1.98 0.66 3 1 C3 1.66 3 2.32 3 3 C3.99 3.33 4.98 3.66 6 4 C8.14809401 7.49065277 9.33403523 11.02467356 10.4375 14.9375 C11.72030832 19.46144637 13.5768585 22.98928304 16 27 C16 27.66 16 28.32 16 29 C15.01 29 14.02 29 13 29 C12.71278076 28.39003174 12.42556152 27.78006348 12.12963867 27.15161133 C10.8182835 24.37062942 9.50293191 21.59155574 8.1875 18.8125 C7.50977539 17.37293945 7.50977539 17.37293945 6.81835938 15.90429688 C6.37685547 14.97294922 5.93535156 14.04160156 5.48046875 13.08203125 C5.07723389 12.22843018 4.67399902 11.3748291 4.25854492 10.49536133 C3.01484706 7.9318038 3.01484706 7.9318038 1.3449707 5.36987305 C0 3 0 3 0 0 Z " fill="#C7BFAD" transform="translate(370,185)"/>
<path d="M0 0 C1.5 1.3125 1.5 1.3125 3 3 C3 3.99 3 4.98 3 6 C3.66 6 4.32 6 5 6 C7.2018931 10.67902284 8 12.62516458 8 18 C-0.25 16.35 -8.5 14.7 -17 13 C-17 12.67 -17 12.34 -17 12 C-16.01257813 11.97421875 -15.02515625 11.9484375 -14.0078125 11.921875 C-12.72648437 11.86515625 -11.44515625 11.8084375 -10.125 11.75 C-8.84882813 11.70359375 -7.57265625 11.6571875 -6.2578125 11.609375 C-2.90811895 11.37444944 -2.90811895 11.37444944 -1.5546875 8.953125 C-1.37164062 8.30859375 -1.18859375 7.6640625 -1 7 C-0.67 7.99 -0.34 8.98 0 10 C0.680625 10.680625 1.36125 11.36125 2.0625 12.0625 C2.701875 12.701875 3.34125 13.34125 4 14 C4 14.66 4 15.32 4 16 C4.99 16 5.98 16 7 16 C6.4946875 15.01257813 5.989375 14.02515625 5.46875 13.0078125 C4.81228987 11.71364824 4.15605133 10.41937155 3.5 9.125 C3.16613281 8.47402344 2.83226562 7.82304687 2.48828125 7.15234375 C0 2.2265625 0 2.2265625 0 0 Z " fill="#553122" transform="translate(379,198)"/>
<path d="M0 0 C1.98 0 3.96 0 6 0 C6.86375896 1.61992165 7.71575854 3.24611861 8.5625 4.875 C9.03816406 5.77992187 9.51382812 6.68484375 10.00390625 7.6171875 C10.49697266 8.79667969 10.49697266 8.79667969 11 10 C10.67 10.66 10.34 11.32 10 12 C9.34 11.67 8.68 11.34 8 11 C8.30035156 11.62648438 8.60070312 12.25296875 8.91015625 12.8984375 C9.29042969 13.71570313 9.67070312 14.53296875 10.0625 15.375 C10.44535156 16.18710938 10.82820313 16.99921875 11.22265625 17.8359375 C11.47917969 18.55007812 11.73570312 19.26421875 12 20 C11.67 20.66 11.34 21.32 11 22 C8.17438373 18.20307814 6.43361092 15.81430721 7 11 C6.34 11 5.68 11 5 11 C4.34 10.01 3.68 9.02 3 8 C2.01 8.495 2.01 8.495 1 9 C0.67 6.03 0.34 3.06 0 0 Z M2 5 C3 7 3 7 3 7 Z " fill="#AF6B64" transform="translate(280,68)"/>
<path d="M0 0 C3.50222465 4.01933164 5.76917472 8.17851865 8.0625 12.9375 C8.57006836 13.97293945 8.57006836 13.97293945 9.08789062 15.02929688 C9.75067827 16.3817939 10.4091923 17.7363953 11.06298828 19.09326172 C11.938637 20.87513157 12.87166222 22.62848341 13.80859375 24.37890625 C14.39833984 25.67634766 14.39833984 25.67634766 15 27 C14.67 27.66 14.34 28.32 14 29 C12.35 26.03 10.7 23.06 9 20 C8.34 20.33 7.68 20.66 7 21 C3.08916501 13.93179365 0.27123187 8.13695602 0 0 Z " fill="#ACA095" transform="translate(346,133)"/>
<path d="M0 0 C10.23 0 20.46 0 31 0 C28.56099117 2.43900883 27.64578959 2.33468292 24.28125 2.59765625 C22.88326172 2.71657227 22.88326172 2.71657227 21.45703125 2.83789062 C19.99330078 2.94907227 19.99330078 2.94907227 18.5 3.0625 C16.57263248 3.21653664 14.64552901 3.37392509 12.71875 3.53515625 C11.86216797 3.600979 11.00558594 3.66680176 10.12304688 3.73461914 C7.94914797 3.88675097 7.94914797 3.88675097 6 5 C5.67 3.68 5.34 2.36 5 1 C3.35 1 1.7 1 0 1 C0 0.67 0 0.34 0 0 Z " fill="#6C171C" transform="translate(281,67)"/>
<path d="M0 0 C2.4819155 3.72287325 4.52779526 7.61385671 6.625 11.5625 C7.25535156 12.73329102 7.25535156 12.73329102 7.8984375 13.92773438 C8.29546875 14.67474609 8.6925 15.42175781 9.1015625 16.19140625 C9.46588379 16.87404541 9.83020508 17.55668457 10.20556641 18.26000977 C11 20 11 20 11 22 C10.34 22 9.68 22 9 22 C7 20 7 20 6 18 C5.34 18 4.68 18 4 18 C4 16.35 4 14.7 4 13 C3.34 12.67 2.68 12.34 2 12 C1.61866701 10.0085944 1.28674418 8.00720923 1 6 C0.67 5.34 0.34 4.68 0 4 C-1.65 4 -3.3 4 -5 4 C-5 3.34 -5 2.68 -5 2 C-5.66 1.67 -6.32 1.34 -7 1 C-3.535 0.505 -3.535 0.505 0 0 Z " fill="#AB282D" transform="translate(310,68)"/>
<path d="M0 0 C4.7764475 1.83709519 5.92677561 5.012921 8.02734375 9.4453125 C9.16203962 12.42559804 9.41614369 14.83730794 9 18 C6.26020496 16.99540849 5.20256499 16.40512998 3.875 13.75 C3.441875 12.38875 3.441875 12.38875 3 11 C2.649375 10.01 2.29875 9.02 1.9375 8 C1.10513987 5.3364476 0.48442966 2.7451014 0 0 Z " fill="#D79F89" transform="translate(288,79)"/>
<path d="M0 0 C2.96865509 2.54456151 4.3619751 5.48994665 6 9 C6.66 8.34 7.32 7.68 8 7 C13.74031891 16.22551253 13.74031891 16.22551253 13 22 C11.5 20.625 11.5 20.625 10 19 C10 18.34 10 17.68 10 17 C9.40703125 16.8040625 8.8140625 16.608125 8.203125 16.40625 C5.02336836 14.3766181 4.24823737 11.92021865 2.75 8.5 C2.22921875 7.3346875 1.7084375 6.169375 1.171875 4.96875 C0 2 0 2 0 0 Z " fill="#913E3A" transform="translate(301,109)"/>
<path d="M0 0 C0.33 0 0.66 0 1 0 C1 10.89 1 21.78 1 33 C-2.68965517 29.31034483 -2.68965517 29.31034483 -3 26 C-2.01 24.515 -2.01 24.515 -1 23 C-0.79457183 19.87091345 -0.79457183 19.87091345 -0.9375 16.375 C-1.02432468 10.79506702 -0.76179754 5.52303215 0 0 Z " fill="#C2B9A6" transform="translate(388,168)"/>
<path d="M0 0 C0.66 1.32 1.32 2.64 2 4 C2.99 4 3.98 4 5 4 C5.33 6.31 5.66 8.62 6 11 C6.99 11.33 7.98 11.66 9 12 C10.203125 13.92578125 10.203125 13.92578125 11.25 16.3125 C11.60578125 17.09238281 11.9615625 17.87226563 12.328125 18.67578125 C13.0711335 21.24607227 12.88750996 22.51383429 12 25 C8.80427296 20.13693711 6.25132076 15.38359312 4 10 C3.28595523 8.74130064 2.55665935 7.4911329 1.8125 6.25 C0 3 0 3 0 0 Z " fill="#581C18" transform="translate(326,158)"/>
<path d="M0 0 C0.33 0 0.66 0 1 0 C1.00257813 1.16015625 1.00515625 2.3203125 1.0078125 3.515625 C1.18656189 12.88289651 1.90664702 19.6607969 6.8203125 27.8125 C7.20960938 28.534375 7.59890625 29.25625 8 30 C7.67 30.66 7.34 31.32 7 32 C0.18997955 21.8791791 -1.84617497 14.39971786 -1 2 C-0.67 1.34 -0.34 0.68 0 0 Z " fill="#7F7C72" transform="translate(357,124)"/>
<path d="M0 0 C1.87988281 0.28881836 1.87988281 0.28881836 4 1 C5.43946601 3.5307685 6.61941545 5.90101663 7.75 8.5625 C8.06582031 9.27341797 8.38164062 9.98433594 8.70703125 10.71679688 C9.48454043 12.47208274 10.24401855 14.23533543 11 16 C9.68 16.33 8.36 16.66 7 17 C6.5875 15.989375 6.175 14.97875 5.75 13.9375 C4.60843487 11.24471718 3.31525139 8.7581509 1.8125 6.25 C0 3 0 3 0 0 Z " fill="#5A2526" transform="translate(339,184)"/>
<path d="M0 0 C0.99 0 1.98 0 3 0 C5.1519437 3.22791555 5.20086443 4.28400809 5 8 C5.99 8.33 6.98 8.66 8 9 C8 11.33333333 8 13.66666667 8 16 C8.99 16 9.98 16 11 16 C11 17.65 11 19.3 11 21 C10.34 21 9.68 21 9 21 C7.49373883 17.87797994 5.99606757 14.75191601 4.5 11.625 C4.07074219 10.73554687 3.64148438 9.84609375 3.19921875 8.9296875 C2.59013672 7.65351562 2.59013672 7.65351562 1.96875 6.3515625 C1.59169922 5.56604004 1.21464844 4.78051758 0.82617188 3.97119141 C0 2 0 2 0 0 Z " fill="#A62726" transform="translate(288,72)"/>
<path d="M0 0 C2.53605069 2.53605069 2.79250373 4.46876556 3.625 7.9375 C4.01558594 9.52884766 4.01558594 9.52884766 4.4140625 11.15234375 C5 14 5 14 5 17 C4.01 17 3.02 17 2 17 C1.34 18.32 0.68 19.64 0 21 C0 14.07 0 7.14 0 0 Z " fill="#8F2420" transform="translate(277,72)"/>
<path d="M0 0 C0.33 0 0.66 0 1 0 C1 4.95 1 9.9 1 15 C0.67 14.01 0.34 13.02 0 12 C-1.99983534 12.79117904 -1.99983534 12.79117904 -4 14 C-4.33 14.99 -4.66 15.98 -5 17 C-5.66 17 -6.32 17 -7 17 C-6.37954537 12.76677156 -4.89476441 9.47709705 -2.9375 5.6875 C-2.38964844 4.61886719 -1.84179688 3.55023438 -1.27734375 2.44921875 C-0.64505859 1.23685547 -0.64505859 1.23685547 0 0 Z " fill="#A69882" transform="translate(388,68)"/>
<path d="M0 0 C4.70074246 2.35037123 7.35734537 10.208924 9 15 C9.35858516 16.32676508 9.7018576 17.65835921 10 19 C9.01 19 8.02 19 7 19 C5.8206851 16.77675074 4.65659082 14.54753361 3.5 12.3125 C3.16613281 11.68666016 2.83226562 11.06082031 2.48828125 10.41601562 C0.6304738 6.79518683 -0.43750214 4.08595745 0 0 Z " fill="#A48B7D" transform="translate(320,83)"/>
<path d="M0 0 C2.72169138 2.72169138 2.32658194 4.45214454 2.5 8.25 C2.71305772 12.87335262 3.36892748 16.65924249 5 21 C2.13761231 18.56166974 1.14306422 16.21633777 -0.0625 12.6875 C-0.39894531 11.71554688 -0.73539062 10.74359375 -1.08203125 9.7421875 C-1.38496094 8.83726562 -1.68789063 7.93234375 -2 7 C-2.4125 5.783125 -2.825 4.56625 -3.25 3.3125 C-3.4975 2.549375 -3.745 1.78625 -4 1 C-2.125 0.375 -2.125 0.375 0 0 Z " fill="#B0A688" transform="translate(365,145)"/>
<path d="M0 0 C4.45930342 3.25408628 7.51132584 5.91138953 8.40234375 11.54296875 C8.65826433 14.02855355 8.85952991 16.50544502 9 19 C6.46446243 15.84009582 4.62801666 12.55508505 2.8125 8.9375 C2.28269531 7.89464844 1.75289063 6.85179688 1.20703125 5.77734375 C0 3 0 3 0 0 Z " fill="#C5B2AA" transform="translate(338,121)"/>
<path d="M0 0 C4 1 4 1 6 3 C6 4.32 6 5.64 6 7 C5.34 7 4.68 7 4 7 C3.67 6.34 3.34 5.68 3 5 C2.67 12.59 2.34 20.18 2 28 C1.67 28 1.34 28 1 28 C0.67 18.76 0.34 9.52 0 0 Z " fill="#511F1F" transform="translate(275,69)"/>
<path d="M0 0 C1.51400391 0.01740234 1.51400391 0.01740234 3.05859375 0.03515625 C4.07050781 0.04417969 5.08242188 0.05320313 6.125 0.0625 C7.29869141 0.07990234 7.29869141 0.07990234 8.49609375 0.09765625 C8.16609375 0.75765625 7.83609375 1.41765625 7.49609375 2.09765625 C5.71777344 2.60009766 5.71777344 2.60009766 3.41796875 2.94921875 C2.58652344 3.078125 1.75507813 3.20703125 0.8984375 3.33984375 C0.02316406 3.46617187 -0.85210937 3.5925 -1.75390625 3.72265625 C-2.61371094 3.85671875 -3.47351563 3.99078125 -4.359375 4.12890625 C-8.43472402 4.74429023 -12.36941184 5.28558781 -16.50390625 5.09765625 C-13.62971904 3.52573235 -11.02553019 2.66637236 -7.81640625 2.03515625 C-4.90178128 1.45795556 -2.80209576 0.10928611 0 0 Z " fill="#401C18" transform="translate(300.50390625,207.90234375)"/>
<path d="M0 0 C2.97837763 2.55289511 4.29394232 5.51370822 6 9 C6.66 9.66 7.32 10.32 8 11 C8.75 13.5 8.75 13.5 9 16 C8.34 16.66 7.68 17.32 7 18 C5.82333996 15.75474054 4.6585926 13.50455858 3.5 11.25 C3.16613281 10.61578125 2.83226562 9.9815625 2.48828125 9.328125 C0.72824467 5.87989007 0 3.95159931 0 0 Z " fill="#ECDDD0" transform="translate(354,152)"/>
<path d="M0 0 C0.99 0 1.98 0 3 0 C3.86343824 2.12124966 4.71550648 4.24713072 5.5625 6.375 C6.27599609 8.15003906 6.27599609 8.15003906 7.00390625 9.9609375 C8 13 8 13 7 15 C3.47108645 12.64739097 3.15801024 11.41796084 1.8125 7.5 C1.46832031 6.5203125 1.12414062 5.540625 0.76953125 4.53125 C0 2 0 2 0 0 Z " fill="#974143" transform="translate(314,132)"/>
<path d="M0 0 C0.33 0 0.66 0 1 0 C1 8.25 1 16.5 1 25 C1.99 25 2.98 25 4 25 C4 25.66 4 26.32 4 27 C2.35 27 0.7 27 -1 27 C-0.67 18.09 -0.34 9.18 0 0 Z " fill="#471519" transform="translate(276,188)"/>
<path d="M0 0 C1.65 0 3.3 0 5 0 C6.23076923 5.41538462 6.23076923 5.41538462 5.0625 8.375 C4.711875 8.91125 4.36125 9.4475 4 10 C1.7448078 7.7448078 1.02276532 5.9952413 0 3 C0 2.01 0 1.02 0 0 Z " fill="#9D9381" transform="translate(370,166)"/>
<path d="M0 0 C3.26737303 3.26737303 3.95672896 6.83168198 4.125 11.375 C4.08375 12.24125 4.0425 13.1075 4 14 C0.53950545 11.00090472 -1.06056062 8.50930905 -2 4 C-1.125 1.625 -1.125 1.625 0 0 Z " fill="#662524" transform="translate(298,113)"/>
<path d="M0 0 C0.99 0 1.98 0 3 0 C3.72505558 1.42913847 4.42958435 2.86870658 5.125 4.3125 C5.51945312 5.11300781 5.91390625 5.91351563 6.3203125 6.73828125 C6.54460937 7.48464844 6.76890625 8.23101562 7 9 C6.01 10.485 6.01 10.485 5 12 C4.15885829 10.56705502 3.32734313 9.12845595 2.5 7.6875 C1.80390625 6.48673828 1.80390625 6.48673828 1.09375 5.26171875 C0 3 0 3 0 0 Z " fill="#732821" transform="translate(320,146)"/>
<path d="M0 0 C2.92965912 2.92965912 3.94133569 5.680053 4.125 9.8125 C4.08375 10.534375 4.0425 11.25625 4 12 C2.5 10.625 2.5 10.625 1 9 C1 8.34 1 7.68 1 7 C-0.32 6.34 -1.64 5.68 -3 5 C-2.67 4.01 -2.34 3.02 -2 2 C-1.67 2.33 -1.34 2.66 -1 3 C-0.67 2.01 -0.34 1.02 0 0 Z " fill="#BF796D" transform="translate(297,93)"/>
<path d="M0 0 C0.66 0 1.32 0 2 0 C2.83848804 1.45537568 3.67063934 2.91440373 4.5 4.375 C5.19609375 5.59316406 5.19609375 5.59316406 5.90625 6.8359375 C7 9 7 9 7 11 C6.01 11 5.02 11 4 11 C3.32591692 9.73308493 2.66099503 8.46129251 2 7.1875 C1.62875 6.47980469 1.2575 5.77210938 0.875 5.04296875 C0 3 0 3 0 0 Z " fill="#E8D4C5" transform="translate(379,203)"/>
<path d="M0 0 C2.95051654 3.45922629 5.25855517 6.7838704 7 11 C6.67 11.99 6.34 12.98 6 14 C5.34 12.68 4.68 11.36 4 10 C3.01 10.495 3.01 10.495 2 11 C0.80712589 7.12315913 0 4.08378077 0 0 Z " fill="#84776D" transform="translate(346,133)"/>
<path d="M0 0 C1.9375 0.125 1.9375 0.125 4 1 C5.52164099 3.89111788 6 5.71823412 6 9 C5.34 9 4.68 9 4 9 C3.34 8.01 2.68 7.02 2 6 C1.01 6.495 1.01 6.495 0 7 C-0.38133299 5.0085944 -0.71325582 3.00720923 -1 1 C-0.67 0.67 -0.34 0.34 0 0 Z M1 3 C2 5 2 5 2 5 Z " fill="#875E59" transform="translate(281,70)"/>
<path d="M0 0 C1.63001953 0.15275391 1.63001953 0.15275391 3.29296875 0.30859375 C4.54013672 0.43427734 4.54013672 0.43427734 5.8125 0.5625 C5.8125 0.8925 5.8125 1.2225 5.8125 1.5625 C3.68881556 1.78384176 1.56345976 1.98920007 -0.5625 2.1875 C-1.74585938 2.30351562 -2.92921875 2.41953125 -4.1484375 2.5390625 C-5.15132813 2.54679688 -6.15421875 2.55453125 -7.1875 2.5625 C-7.8475 1.9025 -8.5075 1.2425 -9.1875 0.5625 C-5.76060364 -0.57979879 -3.57647782 -0.34611076 0 0 Z " fill="#5E2825" transform="translate(365.1875,208.4375)"/>
<path d="M0 0 C2.67438936 2.38335287 4.15158012 4.87036148 5.75 8.0625 C6.19859375 8.94035156 6.6471875 9.81820312 7.109375 10.72265625 C7.40328125 11.47417969 7.6971875 12.22570312 8 13 C7.67 13.66 7.34 14.32 7 15 C3.66544904 10.0999919 1.32768975 5.79355528 0 0 Z " fill="#5D593D" transform="translate(357,141)"/>
<path d="M0 0 C0.99 1.32 1.98 2.64 3 4 C3.66 3.34 4.32 2.68 5 2 C5.33 4.31 5.66 6.62 6 9 C5.01 9.33 4.02 9.66 3 10 C0 3.375 0 3.375 0 0 Z " fill="#955B4F" transform="translate(297,100)"/>
<path d="M0 0 C2.64465038 3.1254959 3.84414715 6.08788267 5 10 C3.68 9.67 2.36 9.34 1 9 C1 8.01 1 7.02 1 6 C0.34 6 -0.32 6 -1 6 C-0.67 4.02 -0.34 2.04 0 0 Z " fill="#943131" transform="translate(323,94)"/>
<path d="M0 0 C1.921875 0.7109375 1.921875 0.7109375 4 2 C4.828125 4.1640625 4.828125 4.1640625 5.25 6.625 C5.39953125 7.44226563 5.5490625 8.25953125 5.703125 9.1015625 C5.80109375 9.72804688 5.8990625 10.35453125 6 11 C2.1334716 7.777893 1.11940982 4.85077588 0 0 Z " fill="#B7A099" transform="translate(315,76)"/>
<path d="M0 0 C3.67230705 3.07999946 4.56802365 5.2482602 5 10 C4.34 10 3.68 10 3 10 C0.96564469 6.27034861 0 4.33094958 0 0 Z " fill="#ECDFCF" transform="translate(365,174)"/>
<path d="M0 0 C1.9375 0.6875 1.9375 0.6875 4 2 C4.75 4.625 4.75 4.625 5 7 C4.01 7 3.02 7 2 7 C0.5393715 4.35261084 0 3.10551666 0 0 Z " fill="#F0AE9F" transform="translate(288,79)"/>
<path d="M0 0 C2.32947183 2.11770166 3.88750845 4.03335588 5 7 C4.67 7.99 4.34 8.98 4 10 C4 9.34 4 8.68 4 8 C2.68 8 1.36 8 0 8 C0 5.36 0 2.72 0 0 Z " fill="#7D7665" transform="translate(369,178)"/>
<path d="M0 0 C2.475 0.495 2.475 0.495 5 1 C4.67 2.98 4.34 4.96 4 7 C0 2.25 0 2.25 0 0 Z " fill="#918074" transform="translate(375,177)"/>
<path d="M0 0 C4.0042343 3.49087093 5.62671065 5.64951939 6 11 C3.37997275 8.62949916 1.64180091 6.12723983 0 3 C0 2.01 0 1.02 0 0 Z " fill="#3B110E" transform="translate(333,172)"/>
<path d="M0 0 C1.32 0.33 2.64 0.66 4 1 C4.33 2.98 4.66 4.96 5 7 C4.01 7.495 4.01 7.495 3 8 C0 2.25 0 2.25 0 0 Z " fill="#911C19" transform="translate(306,110)"/>
<path d="M0 0 C1.98 0 3.96 0 6 0 C6.33 1.32 6.66 2.64 7 4 C6.01 4.495 6.01 4.495 5 5 C5 4.34 5 3.68 5 3 C3.35 2.67 1.7 2.34 0 2 C0 1.34 0 0.68 0 0 Z " fill="#CA7672" transform="translate(280,68)"/>
<path d="M0 0 C0.99 1.32 1.98 2.64 3 4 C2.01 5.32 1.02 6.64 0 8 C-0.79953138 4.71303767 -1.09658936 3.28976808 0 0 Z M2 0 C2.66 0.66 3.32 1.32 4 2 C3.34 2 2.68 2 2 2 C2 1.34 2 0.68 2 0 Z " fill="#CDBCA5" transform="translate(380,178)"/>
<path d="M0 0 C0.66 0 1.32 0 2 0 C3.80411967 2.75924185 4.0127245 3.88972103 3.625 7.25 C3.41875 8.1575 3.2125 9.065 3 10 C2.67 10 2.34 10 2 10 C1.814375 8.576875 1.814375 8.576875 1.625 7.125 C1.28312823 3.91332809 1.28312823 3.91332809 -1 2 C-0.67 1.34 -0.34 0.68 0 0 Z " fill="#731D1C" transform="translate(345,140)"/>
<path d="M0 0 C6 7.71428571 6 7.71428571 6 11 C3 10 3 10 1.3125 7.1875 C0 4 0 4 0 0 Z " fill="#4C291F" transform="translate(287,91)"/>
<path d="M0 0 C0.66 0 1.32 0 2 0 C5 5.75 5 5.75 5 8 C4.34 8 3.68 8 3 8 C0.95830515 5.09451118 0 3.59857954 0 0 Z " fill="#66231B" transform="translate(356,162)"/>
<path d="M0 0 C2.64465038 3.1254959 3.84414715 6.08788267 5 10 C4.34 10 3.68 10 3 10 C0.96564469 6.27034861 0 4.33094958 0 0 Z " fill="#A64144" transform="translate(316,80)"/>
<path d="M0 0 C0.99 0.33 1.98 0.66 3 1 C3.33 2.65 3.66 4.3 4 6 C2.68 5.34 1.36 4.68 0 4 C0 2.68 0 1.36 0 0 Z " fill="#8E141A" transform="translate(329,114)"/>
<path d="M0 0 C0.66 0.99 1.32 1.98 2 3 C0.625 5.5 0.625 5.5 -1 8 C-1.66 8 -2.32 8 -3 8 C-2.45276317 4.62537285 -1.9451 2.91765 0 0 Z " fill="#B8A688" transform="translate(384,77)"/>
</svg>
